# Blender v2.93.1 OBJ File: 'house_LOD0.blend'
# www.blender.org
mtllib Detail_LOD0.mtl
o Cube.001_Cube.013
v -0.378846 0.440946 -0.159608
v -0.378846 0.452451 -0.159608
v -0.373634 0.440946 0.017209
v -0.373634 0.452451 0.017209
v -0.422593 0.440946 -0.158318
v -0.422593 0.452451 -0.158318
v -0.417381 0.440946 0.018498
v -0.417381 0.452451 0.018498
vt 0.357399 0.714799
vt 0.357399 0.833932
vt 0.476533 0.833932
vt 0.476533 0.714799
vt 0.833932 0.357399
vt 0.714799 0.357399
vt 0.714799 0.476533
vt 0.833932 0.476533
vt 0.595666 0.714799
vt 0.476533 0.714799
vt 0.476533 0.833932
vt 0.595666 0.833932
vt 0.714799 0.476533
vt 0.714799 0.595666
vt 0.833932 0.595666
vt 0.833932 0.476533
vt 0.714799 0.714799
vt 0.595666 0.714799
vt 0.595666 0.833932
vt 0.714799 0.833932
vt 0.833932 0.595666
vt 0.714799 0.595666
vt 0.714799 0.714799
vt 0.833932 0.714799
vn 0.0000 -1.0000 -0.0000
vn 0.0295 0.0000 0.9996
vn -0.9996 0.0000 0.0295
vn 0.0000 1.0000 0.0000
vn 0.9996 0.0000 -0.0295
vn -0.0295 0.0000 -0.9996
usemtl Other.003
s off
f 1/1/1 3/2/1 7/3/1 5/4/1
f 4/5/2 8/6/2 7/7/2 3/8/2
f 8/9/3 6/10/3 5/11/3 7/12/3
f 6/13/4 8/14/4 4/15/4 2/16/4
f 2/17/5 4/18/5 3/19/5 1/20/5
f 6/21/6 2/22/6 1/23/6 5/24/6
o Cube.005_Cube.006
v -0.389720 0.444267 -0.160758
v -0.389720 0.247488 -0.160758
v -0.384508 0.444267 0.016054
v -0.384508 0.247488 0.016054
v -0.413786 0.444267 -0.160048
v -0.413786 0.247488 -0.160048
v -0.408574 0.444267 0.016764
v -0.408574 0.247488 0.016764
vt 0.357399 0.714799
vt 0.476533 0.714799
vt 0.476533 0.833932
vt 0.357399 0.833932
vt 0.833932 0.357399
vt 0.833932 0.476533
vt 0.714799 0.476533
vt 0.714799 0.357399
vt 0.595666 0.714799
vt 0.595666 0.833932
vt 0.476533 0.833932
vt 0.476533 0.714799
vt 0.714799 0.476533
vt 0.833932 0.476533
vt 0.833932 0.595666
vt 0.714799 0.595666
vt 0.714799 0.714799
vt 0.714799 0.833932
vt 0.595666 0.833932
vt 0.595666 0.714799
vt 0.833932 0.595666
vt 0.833932 0.714799
vt 0.714799 0.714799
vt 0.714799 0.595666
vn 0.0000 1.0000 0.0000
vn 0.0295 0.0000 0.9996
vn -0.9996 0.0000 0.0295
vn 0.0000 -1.0000 -0.0000
vn 0.9996 0.0000 -0.0295
vn -0.0295 0.0000 -0.9996
usemtl Other
s off
f 9/25/7 13/26/7 15/27/7 11/28/7
f 12/29/8 11/30/8 15/31/8 16/32/8
f 16/33/9 15/34/9 13/35/9 14/36/9
f 14/37/10 10/38/10 12/39/10 16/40/10
f 10/41/11 9/42/11 11/43/11 12/44/11
f 14/45/12 13/46/12 9/47/12 10/48/12
o Cube.013_Cube.014
v -0.380296 0.237320 -0.159608
v -0.380296 0.248824 -0.159608
v -0.375084 0.237320 0.017209
v -0.375084 0.248824 0.017209
v -0.424043 0.237320 -0.158318
v -0.424043 0.248824 -0.158318
v -0.418831 0.237320 0.018498
v -0.418831 0.248824 0.018498
vt 0.357399 0.714799
vt 0.357399 0.833932
vt 0.476533 0.833932
vt 0.476533 0.714799
vt 0.833932 0.357399
vt 0.714799 0.357399
vt 0.714799 0.476533
vt 0.833932 0.476533
vt 0.595666 0.714799
vt 0.476533 0.714799
vt 0.476533 0.833932
vt 0.595666 0.833932
vt 0.714799 0.476533
vt 0.714799 0.595666
vt 0.833932 0.595666
vt 0.833932 0.476533
vt 0.714799 0.714799
vt 0.595666 0.714799
vt 0.595666 0.833932
vt 0.714799 0.833932
vt 0.833932 0.595666
vt 0.714799 0.595666
vt 0.714799 0.714799
vt 0.833932 0.714799
vn 0.0000 -1.0000 -0.0000
vn 0.0295 0.0000 0.9996
vn -0.9996 0.0000 0.0295
vn 0.0000 1.0000 0.0000
vn 0.9996 0.0000 -0.0295
vn -0.0295 0.0000 -0.9996
usemtl Other.004
s off
f 17/49/13 19/50/13 23/51/13 21/52/13
f 20/53/14 24/54/14 23/55/14 19/56/14
f 24/57/15 22/58/15 21/59/15 23/60/15
f 22/61/16 24/62/16 20/63/16 18/64/16
f 18/65/17 20/66/17 19/67/17 17/68/17
f 22/69/18 18/70/18 17/71/18 21/72/18
o Cube.007_Cube.015
v -0.380296 0.237320 0.249886
v -0.380296 0.248824 0.249886
v -0.375084 0.237320 0.426702
v -0.375084 0.248824 0.426702
v -0.424043 0.237320 0.251175
v -0.424043 0.248824 0.251175
v -0.418831 0.237320 0.427992
v -0.418831 0.248824 0.427992
vt 0.357399 0.714799
vt 0.357399 0.833932
vt 0.476533 0.833932
vt 0.476533 0.714799
vt 0.833932 0.357399
vt 0.714799 0.357399
vt 0.714799 0.476533
vt 0.833932 0.476533
vt 0.595666 0.714799
vt 0.476533 0.714799
vt 0.476533 0.833932
vt 0.595666 0.833932
vt 0.714799 0.476533
vt 0.714799 0.595666
vt 0.833932 0.595666
vt 0.833932 0.476533
vt 0.714799 0.714799
vt 0.595666 0.714799
vt 0.595666 0.833932
vt 0.714799 0.833932
vt 0.833932 0.595666
vt 0.714799 0.595666
vt 0.714799 0.714799
vt 0.833932 0.714799
vn 0.0000 -1.0000 -0.0000
vn 0.0295 0.0000 0.9996
vn -0.9996 0.0000 0.0295
vn 0.0000 1.0000 0.0000
vn 0.9996 0.0000 -0.0295
vn -0.0295 0.0000 -0.9996
usemtl Other.005
s off
f 25/73/19 27/74/19 31/75/19 29/76/19
f 28/77/20 32/78/20 31/79/20 27/80/20
f 32/81/21 30/82/21 29/83/21 31/84/21
f 30/85/22 32/86/22 28/87/22 26/88/22
f 26/89/23 28/90/23 27/91/23 25/92/23
f 30/93/24 26/94/24 25/95/24 29/96/24
o Cube.011_Cube.016
v -0.389720 0.444267 0.248736
v -0.389720 0.247488 0.248736
v -0.384508 0.444267 0.425548
v -0.384508 0.247488 0.425548
v -0.413786 0.444267 0.249445
v -0.413786 0.247488 0.249445
v -0.408574 0.444267 0.426257
v -0.408574 0.247488 0.426257
vt 0.357399 0.714799
vt 0.476533 0.714799
vt 0.476533 0.833932
vt 0.357399 0.833932
vt 0.833932 0.357399
vt 0.833932 0.476533
vt 0.714799 0.476533
vt 0.714799 0.357399
vt 0.595666 0.714799
vt 0.595666 0.833932
vt 0.476533 0.833932
vt 0.476533 0.714799
vt 0.714799 0.476533
vt 0.833932 0.476533
vt 0.833932 0.595666
vt 0.714799 0.595666
vt 0.714799 0.714799
vt 0.714799 0.833932
vt 0.595666 0.833932
vt 0.595666 0.714799
vt 0.833932 0.595666
vt 0.833932 0.714799
vt 0.714799 0.714799
vt 0.714799 0.595666
vn 0.0000 1.0000 0.0000
vn 0.0295 0.0000 0.9996
vn -0.9996 0.0000 0.0295
vn 0.0000 -1.0000 -0.0000
vn 0.9996 0.0000 -0.0295
vn -0.0295 0.0000 -0.9996
usemtl Other.006
s off
f 33/97/25 37/98/25 39/99/25 35/100/25
f 36/101/26 35/102/26 39/103/26 40/104/26
f 40/105/27 39/106/27 37/107/27 38/108/27
f 38/109/28 34/110/28 36/111/28 40/112/28
f 34/113/29 33/114/29 35/115/29 36/116/29
f 38/117/30 37/118/30 33/119/30 34/120/30
o Cube.014_Cube.017
v -0.378846 0.440946 0.249886
v -0.378846 0.452451 0.249886
v -0.373634 0.440946 0.426702
v -0.373634 0.452451 0.426702
v -0.422593 0.440946 0.251175
v -0.422593 0.452451 0.251175
v -0.417381 0.440946 0.427992
v -0.417381 0.452451 0.427992
vt 0.357399 0.714799
vt 0.357399 0.833932
vt 0.476533 0.833932
vt 0.476533 0.714799
vt 0.833932 0.357399
vt 0.714799 0.357399
vt 0.714799 0.476533
vt 0.833932 0.476533
vt 0.595666 0.714799
vt 0.476533 0.714799
vt 0.476533 0.833932
vt 0.595666 0.833932
vt 0.714799 0.476533
vt 0.714799 0.595666
vt 0.833932 0.595666
vt 0.833932 0.476533
vt 0.714799 0.714799
vt 0.595666 0.714799
vt 0.595666 0.833932
vt 0.714799 0.833932
vt 0.833932 0.595666
vt 0.714799 0.595666
vt 0.714799 0.714799
vt 0.833932 0.714799
vn 0.0000 -1.0000 -0.0000
vn 0.0295 0.0000 0.9996
vn -0.9996 0.0000 0.0295
vn 0.0000 1.0000 0.0000
vn 0.9996 0.0000 -0.0295
vn -0.0295 0.0000 -0.9996
usemtl Other.007
s off
f 41/121/31 43/122/31 47/123/31 45/124/31
f 44/125/32 48/126/32 47/127/32 43/128/32
f 48/129/33 46/130/33 45/131/33 47/132/33
f 46/133/34 48/134/34 44/135/34 42/136/34
f 42/137/35 44/138/35 43/139/35 41/140/35
f 46/141/36 42/142/36 41/143/36 45/144/36
o Cube.021_Cube.024
v -1.226568 0.440946 -0.282315
v -1.226568 0.452451 -0.282315
v -1.049838 0.440946 -0.289898
v -1.049838 0.452451 -0.289898
v -1.224692 0.440946 -0.238589
v -1.224692 0.452451 -0.238589
v -1.047962 0.440946 -0.246172
v -1.047962 0.452451 -0.246172
vt 0.357399 0.714799
vt 0.357399 0.833932
vt 0.476533 0.833932
vt 0.476533 0.714799
vt 0.833932 0.357399
vt 0.714799 0.357399
vt 0.714799 0.476533
vt 0.833932 0.476533
vt 0.595666 0.714799
vt 0.476533 0.714799
vt 0.476533 0.833932
vt 0.595666 0.833932
vt 0.714799 0.476533
vt 0.714799 0.595666
vt 0.833932 0.595666
vt 0.833932 0.476533
vt 0.714799 0.714799
vt 0.595666 0.714799
vt 0.595666 0.833932
vt 0.714799 0.833932
vt 0.833932 0.595666
vt 0.714799 0.595666
vt 0.714799 0.714799
vt 0.833932 0.714799
vn 0.0000 -1.0000 0.0000
vn 0.9991 0.0000 -0.0429
vn 0.0429 0.0000 0.9991
vn 0.0000 1.0000 0.0000
vn -0.0429 0.0000 -0.9991
vn -0.9991 0.0000 0.0429
usemtl Other.014
s off
f 49/145/37 51/146/37 55/147/37 53/148/37
f 52/149/38 56/150/38 55/151/38 51/152/38
f 56/153/39 54/154/39 53/155/39 55/156/39
f 54/157/40 56/158/40 52/159/40 50/160/40
f 50/161/41 52/162/41 51/163/41 49/164/41
f 54/165/42 50/166/42 49/167/42 53/168/42
o Cube.022_Cube.025
v -1.227573 0.444267 -0.271427
v -1.227573 0.247488 -0.271427
v -1.050847 0.444267 -0.279009
v -1.050847 0.247488 -0.279009
v -1.226541 0.444267 -0.247373
v -1.226541 0.247488 -0.247373
v -1.049815 0.444267 -0.254955
v -1.049815 0.247488 -0.254955
vt 0.357399 0.714799
vt 0.476533 0.714799
vt 0.476533 0.833932
vt 0.357399 0.833932
vt 0.833932 0.357399
vt 0.833932 0.476533
vt 0.714799 0.476533
vt 0.714799 0.357399
vt 0.595666 0.714799
vt 0.595666 0.833932
vt 0.476533 0.833932
vt 0.476533 0.714799
vt 0.714799 0.476533
vt 0.833932 0.476533
vt 0.833932 0.595666
vt 0.714799 0.595666
vt 0.714799 0.714799
vt 0.714799 0.833932
vt 0.595666 0.833932
vt 0.595666 0.714799
vt 0.833932 0.595666
vt 0.833932 0.714799
vt 0.714799 0.714799
vt 0.714799 0.595666
vn 0.0000 1.0000 0.0000
vn 0.9991 0.0000 -0.0429
vn 0.0429 0.0000 0.9991
vn 0.0000 -1.0000 -0.0000
vn -0.0429 0.0000 -0.9991
vn -0.9991 0.0000 0.0429
usemtl Other.015
s off
f 57/169/43 61/170/43 63/171/43 59/172/43
f 60/173/44 59/174/44 63/175/44 64/176/44
f 64/177/45 63/178/45 61/179/45 62/180/45
f 62/181/46 58/182/46 60/183/46 64/184/46
f 58/185/47 57/186/47 59/187/47 60/188/47
f 62/189/48 61/190/48 57/191/48 58/192/48
o Cube.023_Cube.026
v -1.227026 0.237320 -0.283863
v -1.227026 0.248824 -0.283863
v -1.050295 0.237320 -0.291446
v -1.050295 0.248824 -0.291446
v -1.225149 0.237320 -0.240137
v -1.225149 0.248824 -0.240137
v -1.048419 0.237320 -0.247720
v -1.048419 0.248824 -0.247720
vt 0.357399 0.714799
vt 0.357399 0.833932
vt 0.476533 0.833932
vt 0.476533 0.714799
vt 0.833932 0.357399
vt 0.714799 0.357399
vt 0.714799 0.476533
vt 0.833932 0.476533
vt 0.595666 0.714799
vt 0.476533 0.714799
vt 0.476533 0.833932
vt 0.595666 0.833932
vt 0.714799 0.476533
vt 0.714799 0.595666
vt 0.833932 0.595666
vt 0.833932 0.476533
vt 0.714799 0.714799
vt 0.595666 0.714799
vt 0.595666 0.833932
vt 0.714799 0.833932
vt 0.833932 0.595666
vt 0.714799 0.595666
vt 0.714799 0.714799
vt 0.833932 0.714799
vn 0.0000 -1.0000 0.0000
vn 0.9991 0.0000 -0.0429
vn 0.0429 0.0000 0.9991
vn 0.0000 1.0000 0.0000
vn -0.0429 0.0000 -0.9991
vn -0.9991 0.0000 0.0429
usemtl Other.016
s off
f 65/193/49 67/194/49 71/195/49 69/196/49
f 68/197/50 72/198/50 71/199/50 67/200/50
f 72/201/51 70/202/51 69/203/51 71/204/51
f 70/205/52 72/206/52 68/207/52 66/208/52
f 66/209/53 68/210/53 67/211/53 65/212/53
f 70/213/54 66/214/54 65/215/54 69/216/54
o Cube.024_Cube.027
v -0.655951 0.237320 -0.283863
v -0.655951 0.248824 -0.283863
v -0.479221 0.237320 -0.291446
v -0.479221 0.248824 -0.291446
v -0.654075 0.237320 -0.240137
v -0.654075 0.248824 -0.240137
v -0.477345 0.237320 -0.247720
v -0.477345 0.248824 -0.247720
vt 0.357399 0.714799
vt 0.357399 0.833932
vt 0.476533 0.833932
vt 0.476533 0.714799
vt 0.833932 0.357399
vt 0.714799 0.357399
vt 0.714799 0.476533
vt 0.833932 0.476533
vt 0.595666 0.714799
vt 0.476533 0.714799
vt 0.476533 0.833932
vt 0.595666 0.833932
vt 0.714799 0.476533
vt 0.714799 0.595666
vt 0.833932 0.595666
vt 0.833932 0.476533
vt 0.714799 0.714799
vt 0.595666 0.714799
vt 0.595666 0.833932
vt 0.714799 0.833932
vt 0.833932 0.595666
vt 0.714799 0.595666
vt 0.714799 0.714799
vt 0.833932 0.714799
vn 0.0000 -1.0000 0.0000
vn 0.9991 0.0000 -0.0429
vn 0.0429 0.0000 0.9991
vn 0.0000 1.0000 0.0000
vn -0.0429 0.0000 -0.9991
vn -0.9991 0.0000 0.0429
usemtl Other.017
s off
f 73/217/55 75/218/55 79/219/55 77/220/55
f 76/221/56 80/222/56 79/223/56 75/224/56
f 80/225/57 78/226/57 77/227/57 79/228/57
f 78/229/58 80/230/58 76/231/58 74/232/58
f 74/233/59 76/234/59 75/235/59 73/236/59
f 78/237/60 74/238/60 73/239/60 77/240/60
o Cube.025_Cube.028
v -0.656498 0.444267 -0.271427
v -0.656498 0.247488 -0.271427
v -0.479772 0.444267 -0.279009
v -0.479772 0.247488 -0.279009
v -0.655466 0.444267 -0.247373
v -0.655466 0.247488 -0.247373
v -0.478740 0.444267 -0.254955
v -0.478740 0.247488 -0.254955
vt 0.357399 0.714799
vt 0.476533 0.714799
vt 0.476533 0.833932
vt 0.357399 0.833932
vt 0.833932 0.357399
vt 0.833932 0.476533
vt 0.714799 0.476533
vt 0.714799 0.357399
vt 0.595666 0.714799
vt 0.595666 0.833932
vt 0.476533 0.833932
vt 0.476533 0.714799
vt 0.714799 0.476533
vt 0.833932 0.476533
vt 0.833932 0.595666
vt 0.714799 0.595666
vt 0.714799 0.714799
vt 0.714799 0.833932
vt 0.595666 0.833932
vt 0.595666 0.714799
vt 0.833932 0.595666
vt 0.833932 0.714799
vt 0.714799 0.714799
vt 0.714799 0.595666
vn 0.0000 1.0000 0.0000
vn 0.9991 0.0000 -0.0429
vn 0.0429 0.0000 0.9991
vn 0.0000 -1.0000 -0.0000
vn -0.0429 0.0000 -0.9991
vn -0.9991 0.0000 0.0429
usemtl Other.018
s off
f 81/241/61 85/242/61 87/243/61 83/244/61
f 84/245/62 83/246/62 87/247/62 88/248/62
f 88/249/63 87/250/63 85/251/63 86/252/63
f 86/253/64 82/254/64 84/255/64 88/256/64
f 82/257/65 81/258/65 83/259/65 84/260/65
f 86/261/66 85/262/66 81/263/66 82/264/66
o Cube.026_Cube.029
v -0.655494 0.440946 -0.282315
v -0.655494 0.452451 -0.282315
v -0.478764 0.440946 -0.289898
v -0.478764 0.452451 -0.289898
v -0.653618 0.440946 -0.238589
v -0.653618 0.452451 -0.238589
v -0.476888 0.440946 -0.246172
v -0.476888 0.452451 -0.246172
vt 0.357399 0.714799
vt 0.357399 0.833932
vt 0.476533 0.833932
vt 0.476533 0.714799
vt 0.833932 0.357399
vt 0.714799 0.357399
vt 0.714799 0.476533
vt 0.833932 0.476533
vt 0.595666 0.714799
vt 0.476533 0.714799
vt 0.476533 0.833932
vt 0.595666 0.833932
vt 0.714799 0.476533
vt 0.714799 0.595666
vt 0.833932 0.595666
vt 0.833932 0.476533
vt 0.714799 0.714799
vt 0.595666 0.714799
vt 0.595666 0.833932
vt 0.714799 0.833932
vt 0.833932 0.595666
vt 0.714799 0.595666
vt 0.714799 0.714799
vt 0.833932 0.714799
vn 0.0000 -1.0000 0.0000
vn 0.9991 0.0000 -0.0429
vn 0.0429 0.0000 0.9991
vn 0.0000 1.0000 0.0000
vn -0.0429 0.0000 -0.9991
vn -0.9991 0.0000 0.0429
usemtl Other.019
s off
f 89/265/67 91/266/67 95/267/67 93/268/67
f 92/269/68 96/270/68 95/271/68 91/272/68
f 96/273/69 94/274/69 93/275/69 95/276/69
f 94/277/70 96/278/70 92/279/70 90/280/70
f 90/281/71 92/282/71 91/283/71 89/284/71
f 94/285/72 90/286/72 89/287/72 93/288/72
o Cube.010_Cube.012
v -0.749255 0.463064 -0.267858
v -0.749255 0.118184 -0.267858
v -0.745865 0.463064 -0.152848
v -0.745865 0.118184 -0.152848
v -0.947427 0.463064 -0.262017
v -0.947427 0.118184 -0.262017
v -0.944037 0.463064 -0.147007
v -0.944037 0.118184 -0.147007
vt 0.476533 0.000000
vt 0.595666 0.000000
vt 0.595666 0.119133
vt 0.476533 0.119133
vt 0.238266 0.404334
vt 0.238266 0.523468
vt 0.119133 0.523468
vt 0.119133 0.404334
vt 0.000000 0.523468
vt 0.000000 0.404334
vt 0.357399 0.238266
vt 0.476533 0.238266
vt 0.476533 0.357399
vt 0.357399 0.357399
vt 0.357399 0.357399
vt 0.357399 0.476533
vt 0.238266 0.476533
vt 0.238266 0.357399
vt 0.953065 0.714799
vt 0.953065 0.833932
vt 0.833932 0.833932
vt 0.833932 0.714799
vn 0.0000 1.0000 0.0000
vn 0.0295 0.0000 0.9996
vn -0.9996 0.0000 0.0295
vn 0.0000 -1.0000 0.0000
vn 0.9996 0.0000 -0.0295
vn -0.0295 0.0000 -0.9996
usemtl Other
s off
f 97/289/73 101/290/73 103/291/73 99/292/73
f 100/293/74 99/294/74 103/295/74 104/296/74
f 104/296/75 103/295/75 101/297/75 102/298/75
f 102/299/76 98/300/76 100/301/76 104/302/76
f 98/303/77 97/304/77 99/305/77 100/306/77
f 102/307/78 101/308/78 97/309/78 98/310/78
o Cube.027_Cube.030
v -0.946797 0.452838 -0.281961
v -0.946797 0.464343 -0.281961
v -0.753377 0.452838 -0.290260
v -0.753377 0.464343 -0.290260
v -0.944920 0.452838 -0.238227
v -0.944920 0.464343 -0.238227
v -0.751501 0.452838 -0.246526
v -0.751501 0.464343 -0.246526
vt 0.357399 0.714799
vt 0.357399 0.833932
vt 0.476533 0.833932
vt 0.476533 0.714799
vt 0.833932 0.357399
vt 0.714799 0.357399
vt 0.714799 0.476533
vt 0.833932 0.476533
vt 0.595666 0.714799
vt 0.476533 0.714799
vt 0.476533 0.833932
vt 0.595666 0.833932
vt 0.714799 0.476533
vt 0.714799 0.595666
vt 0.833932 0.595666
vt 0.833932 0.476533
vt 0.714799 0.714799
vt 0.595666 0.714799
vt 0.595666 0.833932
vt 0.714799 0.833932
vt 0.833932 0.595666
vt 0.714799 0.595666
vt 0.714799 0.714799
vt 0.833932 0.714799
vn 0.0000 -1.0000 0.0000
vn 0.9991 0.0000 -0.0429
vn 0.0429 0.0000 0.9991
vn 0.0000 1.0000 0.0000
vn -0.0429 0.0000 -0.9991
vn -0.9991 0.0000 0.0429
usemtl Other.020
s off
f 105/311/79 107/312/79 111/313/79 109/314/79
f 108/315/80 112/316/80 111/317/80 107/318/80
f 112/319/81 110/320/81 109/321/81 111/322/81
f 110/323/82 112/324/82 108/325/82 106/326/82
f 106/327/83 108/328/83 107/329/83 105/330/83
f 110/331/84 106/332/84 105/333/84 109/334/84
o Cube.018_Cube.021
v -1.304895 0.237320 0.077546
v -1.304895 0.248824 0.077546
v -1.305031 0.237320 -0.099347
v -1.305031 0.248824 -0.099347
v -1.261129 0.237320 0.077512
v -1.261129 0.248824 0.077512
v -1.261265 0.237320 -0.099381
v -1.261265 0.248824 -0.099381
vt 0.357399 0.714799
vt 0.357399 0.833932
vt 0.476533 0.833932
vt 0.476533 0.714799
vt 0.833932 0.357399
vt 0.714799 0.357399
vt 0.714799 0.476533
vt 0.833932 0.476533
vt 0.595666 0.714799
vt 0.476533 0.714799
vt 0.476533 0.833932
vt 0.595666 0.833932
vt 0.714799 0.476533
vt 0.714799 0.595666
vt 0.833932 0.595666
vt 0.833932 0.476533
vt 0.714799 0.714799
vt 0.595666 0.714799
vt 0.595666 0.833932
vt 0.714799 0.833932
vt 0.833932 0.595666
vt 0.714799 0.595666
vt 0.714799 0.714799
vt 0.833932 0.714799
vn 0.0000 -1.0000 0.0000
vn -0.0008 0.0000 -1.0000
vn 1.0000 0.0000 -0.0008
vn 0.0000 1.0000 -0.0000
vn -1.0000 0.0000 0.0008
vn 0.0008 0.0000 1.0000
usemtl Other.011
s off
f 113/335/85 115/336/85 119/337/85 117/338/85
f 116/339/86 120/340/86 119/341/86 115/342/86
f 120/343/87 118/344/87 117/345/87 119/346/87
f 118/347/88 120/348/88 116/349/88 114/350/88
f 114/351/89 116/352/89 115/353/89 113/354/89
f 118/355/90 114/356/90 113/357/90 117/358/90
o Cube.019_Cube.022
v -1.292493 0.444267 0.078616
v -1.292493 0.247488 0.078616
v -1.292628 0.444267 -0.098273
v -1.292628 0.247488 -0.098273
v -1.268417 0.444267 0.078598
v -1.268417 0.247488 0.078598
v -1.268553 0.444267 -0.098291
v -1.268553 0.247488 -0.098291
vt 0.357399 0.714799
vt 0.476533 0.714799
vt 0.476533 0.833932
vt 0.357399 0.833932
vt 0.833932 0.357399
vt 0.833932 0.476533
vt 0.714799 0.476533
vt 0.714799 0.357399
vt 0.595666 0.714799
vt 0.595666 0.833932
vt 0.476533 0.833932
vt 0.476533 0.714799
vt 0.714799 0.476533
vt 0.833932 0.476533
vt 0.833932 0.595666
vt 0.714799 0.595666
vt 0.714799 0.714799
vt 0.714799 0.833932
vt 0.595666 0.833932
vt 0.595666 0.714799
vt 0.833932 0.595666
vt 0.833932 0.714799
vt 0.714799 0.714799
vt 0.714799 0.595666
vn 0.0000 1.0000 0.0000
vn -0.0008 0.0000 -1.0000
vn 1.0000 0.0000 -0.0008
vn 0.0000 -1.0000 0.0000
vn -1.0000 0.0000 0.0008
vn 0.0008 0.0000 1.0000
usemtl Other.012
s off
f 121/359/91 125/360/91 127/361/91 123/362/91
f 124/363/92 123/364/92 127/365/92 128/366/92
f 128/367/93 127/368/93 125/369/93 126/370/93
f 126/371/94 122/372/94 124/373/94 128/374/94
f 122/375/95 121/376/95 123/377/95 124/378/95
f 126/379/96 125/380/96 121/381/96 122/382/96
o Cube.020_Cube.023
v -1.303329 0.440946 0.077154
v -1.303329 0.452451 0.077154
v -1.303465 0.440946 -0.099739
v -1.303465 0.452451 -0.099739
v -1.259564 0.440946 0.077121
v -1.259564 0.452451 0.077121
v -1.259699 0.440946 -0.099772
v -1.259699 0.452451 -0.099772
vt 0.357399 0.714799
vt 0.357399 0.833932
vt 0.476533 0.833932
vt 0.476533 0.714799
vt 0.833932 0.357399
vt 0.714799 0.357399
vt 0.714799 0.476533
vt 0.833932 0.476533
vt 0.595666 0.714799
vt 0.476533 0.714799
vt 0.476533 0.833932
vt 0.595666 0.833932
vt 0.714799 0.476533
vt 0.714799 0.595666
vt 0.833932 0.595666
vt 0.833932 0.476533
vt 0.714799 0.714799
vt 0.595666 0.714799
vt 0.595666 0.833932
vt 0.714799 0.833932
vt 0.833932 0.595666
vt 0.714799 0.595666
vt 0.714799 0.714799
vt 0.833932 0.714799
vn 0.0000 -1.0000 -0.0000
vn -0.0008 0.0000 -1.0000
vn 1.0000 0.0000 -0.0008
vn 0.0000 1.0000 -0.0000
vn -1.0000 0.0000 0.0008
vn 0.0008 0.0000 1.0000
usemtl Other.013
s off
f 129/383/97 131/384/97 135/385/97 133/386/97
f 132/387/98 136/388/98 135/389/98 131/390/98
f 136/391/99 134/392/99 133/393/99 135/394/99
f 134/395/100 136/396/100 132/397/100 130/398/100
f 130/399/101 132/400/101 131/401/101 129/402/101
f 134/403/102 130/404/102 129/405/102 133/406/102
o Cube.015_Cube.018
v -1.303329 0.440946 0.426300
v -1.303329 0.452451 0.426300
v -1.303465 0.440946 0.249407
v -1.303465 0.452451 0.249407
v -1.259564 0.440946 0.426267
v -1.259564 0.452451 0.426267
v -1.259699 0.440946 0.249374
v -1.259699 0.452451 0.249374
vt 0.357399 0.714799
vt 0.357399 0.833932
vt 0.476533 0.833932
vt 0.476533 0.714799
vt 0.833932 0.357399
vt 0.714799 0.357399
vt 0.714799 0.476533
vt 0.833932 0.476533
vt 0.595666 0.714799
vt 0.476533 0.714799
vt 0.476533 0.833932
vt 0.595666 0.833932
vt 0.714799 0.476533
vt 0.714799 0.595666
vt 0.833932 0.595666
vt 0.833932 0.476533
vt 0.714799 0.714799
vt 0.595666 0.714799
vt 0.595666 0.833932
vt 0.714799 0.833932
vt 0.833932 0.595666
vt 0.714799 0.595666
vt 0.714799 0.714799
vt 0.833932 0.714799
vn 0.0000 -1.0000 -0.0000
vn -0.0008 0.0000 -1.0000
vn 1.0000 0.0000 -0.0008
vn 0.0000 1.0000 -0.0000
vn -1.0000 0.0000 0.0008
vn 0.0008 0.0000 1.0000
usemtl Other.008
s off
f 137/407/103 139/408/103 143/409/103 141/410/103
f 140/411/104 144/412/104 143/413/104 139/414/104
f 144/415/105 142/416/105 141/417/105 143/418/105
f 142/419/106 144/420/106 140/421/106 138/422/106
f 138/423/107 140/424/107 139/425/107 137/426/107
f 142/427/108 138/428/108 137/429/108 141/430/108
o Cube.016_Cube.019
v -1.292493 0.444267 0.427762
v -1.292493 0.247488 0.427762
v -1.292628 0.444267 0.250873
v -1.292628 0.247488 0.250873
v -1.268417 0.444267 0.427743
v -1.268417 0.247488 0.427743
v -1.268553 0.444267 0.250855
v -1.268553 0.247488 0.250855
vt 0.357399 0.714799
vt 0.476533 0.714799
vt 0.476533 0.833932
vt 0.357399 0.833932
vt 0.833932 0.357399
vt 0.833932 0.476533
vt 0.714799 0.476533
vt 0.714799 0.357399
vt 0.595666 0.714799
vt 0.595666 0.833932
vt 0.476533 0.833932
vt 0.476533 0.714799
vt 0.714799 0.476533
vt 0.833932 0.476533
vt 0.833932 0.595666
vt 0.714799 0.595666
vt 0.714799 0.714799
vt 0.714799 0.833932
vt 0.595666 0.833932
vt 0.595666 0.714799
vt 0.833932 0.595666
vt 0.833932 0.714799
vt 0.714799 0.714799
vt 0.714799 0.595666
vn 0.0000 1.0000 0.0000
vn -0.0008 0.0000 -1.0000
vn 1.0000 0.0000 -0.0008
vn 0.0000 -1.0000 0.0000
vn -1.0000 0.0000 0.0008
vn 0.0008 0.0000 1.0000
usemtl Other.009
s off
f 145/431/109 149/432/109 151/433/109 147/434/109
f 148/435/110 147/436/110 151/437/110 152/438/110
f 152/439/111 151/440/111 149/441/111 150/442/111
f 150/443/112 146/444/112 148/445/112 152/446/112
f 146/447/113 145/448/113 147/449/113 148/450/113
f 150/451/114 149/452/114 145/453/114 146/454/114
o Cube.017_Cube.020
v -1.304895 0.237320 0.426691
v -1.304895 0.248824 0.426691
v -1.305031 0.237320 0.249798
v -1.305031 0.248824 0.249798
v -1.261129 0.237320 0.426658
v -1.261129 0.248824 0.426658
v -1.261265 0.237320 0.249765
v -1.261265 0.248824 0.249765
vt 0.357399 0.714799
vt 0.357399 0.833932
vt 0.476533 0.833932
vt 0.476533 0.714799
vt 0.833932 0.357399
vt 0.714799 0.357399
vt 0.714799 0.476533
vt 0.833932 0.476533
vt 0.595666 0.714799
vt 0.476533 0.714799
vt 0.476533 0.833932
vt 0.595666 0.833932
vt 0.714799 0.476533
vt 0.714799 0.595666
vt 0.833932 0.595666
vt 0.833932 0.476533
vt 0.714799 0.714799
vt 0.595666 0.714799
vt 0.595666 0.833932
vt 0.714799 0.833932
vt 0.833932 0.595666
vt 0.714799 0.595666
vt 0.714799 0.714799
vt 0.833932 0.714799
vn 0.0000 -1.0000 0.0000
vn -0.0008 0.0000 -1.0000
vn 1.0000 0.0000 -0.0008
vn 0.0000 1.0000 -0.0000
vn -1.0000 0.0000 0.0008
vn 0.0008 0.0000 1.0000
usemtl Other.010
s off
f 153/455/115 155/456/115 159/457/115 157/458/115
f 156/459/116 160/460/116 159/461/116 155/462/116
f 160/463/117 158/464/117 157/465/117 159/466/117
f 158/467/118 160/468/118 156/469/118 154/470/118
f 154/471/119 156/472/119 155/473/119 153/474/119
f 158/475/120 154/476/120 153/477/120 157/478/120
